<svg xmlns="http://www.w3.org/2000/svg" width="268.964" height="55.478" viewBox="0 0 268.964 55.478">
  <g id="cryptanos" transform="translate(-1015 -36.799)">
    <g id="Group_3560" data-name="Group 3560" transform="translate(1015 36.799)">
      <path id="Path_5937" data-name="Path 5937" d="M-68.846,2458.994h0c0-.622.008-1.244,0-1.865-.01-.58-.019-.59-.59-.6-.918-.012-1.833.079-2.748.126a34.313,34.313,0,0,0-4.648.6,38.681,38.681,0,0,0-8.48,2.628A28.88,28.88,0,0,0-96.274,2468a18.754,18.754,0,0,0-3.769,7.365,16.959,16.959,0,0,0-.473,5.84,18.092,18.092,0,0,0,1.872,6.485,23.122,23.122,0,0,0,6.6,7.783A33.716,33.716,0,0,0-80.12,2501.3a39.72,39.72,0,0,0,6.021,1.18,39.792,39.792,0,0,0,4.6.293c.635,0,.649-.014.653-.624q.015-1.824,0-3.649c0-.571-.021-.6-.6-.588a22.463,22.463,0,0,1-3.635-.209,31.53,31.53,0,0,1-8.929-2.473,21.946,21.946,0,0,1-9.5-7.694,14.376,14.376,0,0,1-2.463-7.427,13.184,13.184,0,0,1,.4-3.6,14.592,14.592,0,0,1,2.763-5.711,21.192,21.192,0,0,1,6.287-5.4,29.932,29.932,0,0,1,12.742-3.866c.834-.067,1.665-.156,2.5-.145.31,0,.435-.14.432-.441C-68.85,2460.291-68.846,2459.643-68.846,2458.994Zm0,50.563c0-.568,0-1.135,0-1.7-.008-.7-.012-.711-.733-.7a41.807,41.807,0,0,1-8.115-.8,41.516,41.516,0,0,1-16.279-6.647,31.869,31.869,0,0,1-8.713-8.81,25.822,25.822,0,0,1-3.231-7.031,37.982,37.982,0,0,1-.858-4.435c-.107-.671-.119-.67-.792-.668-1.486,0-2.964.208-4.451.158a8.017,8.017,0,0,0-.811.013c-.538.037-.658.181-.586.719.078.586.189,1.168.263,1.754a26.079,26.079,0,0,0,2.383,7.862,32.184,32.184,0,0,0,4.619,7.109,39.4,39.4,0,0,0,8.279,7.333,47.63,47.63,0,0,0,7.7,4.122,51.625,51.625,0,0,0,9.716,3.024,52.362,52.362,0,0,0,5.506.857,47.181,47.181,0,0,0,5.491.3c.586-.009.6-.018.606-.583C-68.834,2510.8-68.843,2510.178-68.843,2509.557Z" transform="translate(113.432 -2456.53)" fill="#55c6af"/>
      <path id="Path_5938" data-name="Path 5938" d="M76.457,2458.994c0,.649,0,1.3,0,1.946,0,.3-.122.445-.432.441-.837-.011-1.668.078-2.5.145a29.932,29.932,0,0,0-12.742,3.866,21.192,21.192,0,0,0-6.287,5.4,14.592,14.592,0,0,0-2.763,5.711,13.184,13.184,0,0,0-.4,3.6,14.376,14.376,0,0,0,2.463,7.427,21.946,21.946,0,0,0,9.5,7.694,31.53,31.53,0,0,0,8.929,2.473,22.463,22.463,0,0,0,3.635.209c.58-.016.6.017.6.588q.015,1.824,0,3.649c0,.61-.019.621-.653.624a41.4,41.4,0,0,1-10.621-1.473,33.716,33.716,0,0,1-11.926-5.829,23.122,23.122,0,0,1-6.6-7.783,18.092,18.092,0,0,1-1.872-6.485,16.959,16.959,0,0,1,.473-5.84A18.754,18.754,0,0,1,49.029,2468a28.88,28.88,0,0,1,10.962-8.118,38.681,38.681,0,0,1,8.48-2.628,34.313,34.313,0,0,1,4.648-.6c.916-.047,1.83-.138,2.749-.126.571.008.58.018.59.6.011.621,0,1.243,0,1.865Z" transform="translate(-31.871 -2456.53)" fill="#55c6af"/>
      <path id="Path_5939" data-name="Path 5939" d="M-68.843,2761.149c0,.622.009,1.244,0,1.865-.011.565-.02.574-.606.583a46.914,46.914,0,0,1-5.491-.3,52.3,52.3,0,0,1-5.506-.857,51.678,51.678,0,0,1-9.716-3.024,47.706,47.706,0,0,1-7.7-4.122,39.409,39.409,0,0,1-8.279-7.334,32.173,32.173,0,0,1-4.619-7.109,26.082,26.082,0,0,1-2.383-7.861c-.074-.587-.184-1.168-.263-1.754-.072-.538.048-.682.586-.719a8.017,8.017,0,0,1,.811-.012c1.488.05,2.966-.155,4.451-.158.673,0,.685,0,.792.668a37.968,37.968,0,0,0,.858,4.435,25.818,25.818,0,0,0,3.231,7.032,31.871,31.871,0,0,0,8.713,8.809,41.509,41.509,0,0,0,16.279,6.647,41.807,41.807,0,0,0,8.115.8c.721-.007.725.009.733.7C-68.838,2760.014-68.843,2760.582-68.843,2761.149Z" transform="translate(113.432 -2708.123)" fill="#55c6af"/>
      <path id="Path_5940" data-name="Path 5940" d="M276.254,2574.664a13.553,13.553,0,0,0-5.713-4.523,23.069,23.069,0,0,0-9.634-1.859,20.636,20.636,0,0,0-3.987.509,16.4,16.4,0,0,0-9.123,4.886,8.5,8.5,0,0,0-2.259,4.5,8.29,8.29,0,0,0,2.017,6.844,50.88,50.88,0,0,0,5.778,5.552c2.228,1.88,4.557,3.634,6.9,5.367a1.051,1.051,0,0,0,1.367.062c1.5-.913,3.034-1.766,4.5-2.734a40.777,40.777,0,0,0,9.122-7.584,9.122,9.122,0,0,0,2.6-5.775A8.6,8.6,0,0,0,276.254,2574.664Zm-7.46,7.921a8.927,8.927,0,0,1-5.777,2.757,10.278,10.278,0,0,1-6.315-1.222,7.077,7.077,0,0,1-2.325-2.1,4.651,4.651,0,0,1,.467-5.813,8.7,8.7,0,0,1,4.767-2.563,8.876,8.876,0,0,1,1.837-.188,9.984,9.984,0,0,1,6.136,1.708,6.323,6.323,0,0,1,1.922,2.154A4.7,4.7,0,0,1,268.794,2582.585Z" transform="translate(-216.312 -2559.21)" fill="#55c6af"/>
    </g>
    <g id="Group_3561" data-name="Group 3561" transform="translate(1081.407 55.524)">
      <path id="Path_5941" data-name="Path 5941" d="M710.84,3266.311c.426-.017.522.277.68.462,2.13,2.506,4.238,5.031,6.38,7.527.749.873,1.3,2.089,2.328,2.5a9.419,9.419,0,0,0,3.166.134c.133,0,.267,0,.4,0,1.023-.02,1.046-.02,1.047-1.016q.013-7.473,0-14.947c0-1.036-.021-1.044-1.01-1.061-.756-.012-1.513-.011-2.27,0-1.087.014-1.1.02-1.1,1.106-.008,2.936,0,5.872-.012,8.808,0,.322.174.716-.23.973a1.441,1.441,0,0,1-.585-.518c-2.572-3.065-5.167-6.11-7.7-9.207a2.544,2.544,0,0,0-2.47-1.18,15.4,15.4,0,0,1-1.867.016c-1.208.011-1.216.013-1.217,1.266q-.006,6.472,0,12.944c0,.667.035,1.337-.009,2s.26.847.87.822c.844-.035,1.691,0,2.536-.011.938-.015.962-.025.966-.967.012-2.8,0-5.6.008-8.407A3.026,3.026,0,0,1,710.84,3266.311Z" transform="translate(-571.541 -3259.557)" fill="#585858"/>
      <path id="Path_5942" data-name="Path 5942" d="M1082.493,3275.263a15.786,15.786,0,0,0,4.832-.569,6.682,6.682,0,0,0,3.178-1.861,4.135,4.135,0,0,0-.406-6.135,7.43,7.43,0,0,0-2.59-1.332c-2-.621-4.077-.888-6.115-1.331a20.542,20.542,0,0,1-2.3-.665,1.178,1.178,0,0,1-.93-1.164,1.261,1.261,0,0,1,.988-1.125,5.385,5.385,0,0,1,.758-.249,9.529,9.529,0,0,1,3.837-.091,2.835,2.835,0,0,1,2.379,1.671c.206.52.579.59,1.06.567.844-.042,1.689-.049,2.533-.073,1.432-.041,1.514-.179.973-1.552a4.414,4.414,0,0,0-1.331-1.8,5.5,5.5,0,0,0-1.709-1.024,16.171,16.171,0,0,0-10.843,0,4.908,4.908,0,0,0-2.494,1.922,3.381,3.381,0,0,0,.037,4.1,5.547,5.547,0,0,0,2.517,1.9,19.466,19.466,0,0,0,3.71,1.046,44.188,44.188,0,0,1,4.686.984c.778.241,1.575.459,1.672,1.462.079.816-.449,1.466-1.549,1.92a5.357,5.357,0,0,1-.762.233,9.532,9.532,0,0,1-3.579.133,3.931,3.931,0,0,1-3.492-2.5c-.151-.4-.339-.573-.773-.537-1.018.084-2.041.121-3.059.205-.875.072-.968.241-.671,1.117a6.368,6.368,0,0,0,4.52,4.152A15.036,15.036,0,0,0,1082.493,3275.263Z" transform="translate(-889.12 -3257.586)" fill="#585858"/>
      <path id="Path_5943" data-name="Path 5943" d="M530.936,3275.354q-2.009-3.679-4.029-7.351c-1.3-2.374-2.619-4.74-3.887-7.131a1.352,1.352,0,0,0-1.459-.858,19.2,19.2,0,0,1-2.8,0,1.528,1.528,0,0,0-1.658.965c-2.4,4.6-4.855,9.169-7.289,13.75-.37.7-.736,1.393-1.229,2.325,1.6,0,2.934-.027,4.264.013a.968.968,0,0,0,1.007-.663c.36-.762.766-1.5,1.105-2.275a1.334,1.334,0,0,1,1.414-.926q3.731.074,7.465,0a1.369,1.369,0,0,1,1.434.913c.372.8.82,1.574,1.212,2.371.169.343.35.577.786.571,1.445-.02,2.891-.008,4.524-.008C531.449,3276.363,531.207,3275.851,530.936,3275.354Zm-13.977-5.017c.859-2.16,1.959-4.076,3.084-6.323l3.236,6.323Z" transform="translate(-400.182 -3259.676)" fill="#585858"/>
      <path id="Path_5944" data-name="Path 5944" d="M-282.822,3262.534a6.523,6.523,0,0,0-4.06-4.027,14.566,14.566,0,0,0-10.8.122,7.96,7.96,0,0,0-4.8,4.87c-1.263,3.59-.145,7.661,2.9,9.6a13.3,13.3,0,0,0,13.227.742,6.969,6.969,0,0,0,3.588-4.151,39.95,39.95,0,0,0-3.975-.95c-.46-.116-.624.145-.768.516a4.161,4.161,0,0,1-2.347,2.42,6.767,6.767,0,0,1-5.68-.181,4.031,4.031,0,0,1-2.194-2.544,9.424,9.424,0,0,1-.194-4.482A4.274,4.274,0,0,1-294.95,3261a7.165,7.165,0,0,1,3.791-.372,4.563,4.563,0,0,1,3.552,2.279.6.6,0,0,0,.743.373C-285.562,3263.034-284.256,3262.8-282.822,3262.534Z" transform="translate(302.991 -3257.529)" fill="#585858"/>
      <path id="Path_5945" data-name="Path 5945" d="M39.97,3260.132a1.062,1.062,0,0,0,.357.759c2.442,2.823,4.87,5.657,7.334,8.46a2.432,2.432,0,0,1,.653,1.792c-.04,1.688-.023,3.377-.008,5.066.008.918.026.929.981.943.933.014,1.87-.039,2.8.017.755.046.883-.319.874-.954-.025-1.644.054-3.292-.031-4.931a3.131,3.131,0,0,1,.9-2.385c2.323-2.631,4.612-5.29,6.91-7.943.188-.218.526-.382.336-.825-1.445,0-2.909.015-4.372-.008a1.267,1.267,0,0,0-1.106.592c-.894,1.161-1.819,2.3-2.734,3.445-.685.857-1.374,1.713-2.094,2.61a4.6,4.6,0,0,1-1.175-1.192q-1.938-2.373-3.876-4.746c-.278-.34-.511-.713-1.05-.706C43.126,3260.145,41.58,3260.132,39.97,3260.132Z" transform="translate(5.84 -3259.777)" fill="#585858"/>
      <path id="Path_5946" data-name="Path 5946" d="M387.4,3260.139c-2.443,0-4.887-.018-7.33.005-2.141.02-1.866-.352-1.879,1.921-.005.927.023.945.968.953,1.555.014,3.11.006,4.664,0,1.39,0,1.266-.053,1.268,1.328q0,2.864,0,5.728c0,2.043-.009,4.085,0,6.128.006.928.026.937.969.955.711.014,1.422.01,2.132,0,1.7-.021,1.528.238,1.532-1.586.008-3.82,0-7.638.006-11.457,0-1.075.019-1.085,1.108-1.094,1.332-.011,2.666.012,4-.007,2.007-.027,1.751.317,1.765-1.753.008-1.114-.014-1.123-1.211-1.126C392.731,3260.135,390.066,3260.139,387.4,3260.139Z" transform="translate(-287.2 -3259.785)" fill="#585858"/>
      <path id="Path_5947" data-name="Path 5947" d="M710.84,3266.311a3.026,3.026,0,0,0-.092,1.25c-.007,2.8,0,5.6-.008,8.407,0,.942-.028.952-.966.967-.845.013-1.692-.024-2.536.011-.611.025-.914-.152-.87-.822s.009-1.334.009-2q0-6.472,0-12.944c0-1.253.01-1.255,1.217-1.266a15.4,15.4,0,0,0,1.867-.016,2.544,2.544,0,0,1,2.47,1.18c2.532,3.1,5.127,6.142,7.7,9.207a1.441,1.441,0,0,0,.585.518c.4-.258.229-.651.23-.973.015-2.936,0-5.872.012-8.808,0-1.086.017-1.092,1.1-1.106.757-.01,1.513-.011,2.27,0,.989.016,1.009.024,1.01,1.061q.011,7.474,0,14.947c0,1-.024,1-1.047,1.016-.134,0-.267,0-.4,0a9.419,9.419,0,0,1-3.166-.134c-1.032-.415-1.579-1.631-2.328-2.5-2.142-2.5-4.25-5.021-6.38-7.527C711.362,3266.588,711.265,3266.294,710.84,3266.311Z" transform="translate(-571.541 -3259.557)" fill="#585858"/>
      <path id="Path_5948" data-name="Path 5948" d="M1082.493,3275.263a15.036,15.036,0,0,1-4.92-.592,6.368,6.368,0,0,1-4.52-4.152c-.3-.876-.2-1.045.671-1.117,1.018-.084,2.041-.121,3.059-.205.434-.036.622.141.773.537a3.931,3.931,0,0,0,3.492,2.5,9.532,9.532,0,0,0,3.579-.133,5.357,5.357,0,0,0,.762-.233c1.1-.454,1.629-1.1,1.549-1.92-.1-1-.894-1.221-1.672-1.462a44.188,44.188,0,0,0-4.686-.984,19.466,19.466,0,0,1-3.71-1.046,5.547,5.547,0,0,1-2.517-1.9,3.381,3.381,0,0,1-.037-4.1,4.908,4.908,0,0,1,2.494-1.922,16.171,16.171,0,0,1,10.843,0,5.5,5.5,0,0,1,1.709,1.024,4.414,4.414,0,0,1,1.331,1.8c.541,1.373.458,1.511-.973,1.552-.844.023-1.69.031-2.533.073-.481.023-.854-.046-1.06-.567a2.835,2.835,0,0,0-2.379-1.671,9.529,9.529,0,0,0-3.837.091,5.385,5.385,0,0,0-.758.249,1.261,1.261,0,0,0-.988,1.125,1.178,1.178,0,0,0,.93,1.164,20.542,20.542,0,0,0,2.3.665c2.039.442,4.114.71,6.115,1.331a7.43,7.43,0,0,1,2.59,1.332,4.135,4.135,0,0,1,.406,6.135,6.682,6.682,0,0,1-3.178,1.861A15.786,15.786,0,0,1,1082.493,3275.263Z" transform="translate(-889.12 -3257.586)" fill="#585858"/>
      <path id="Path_5949" data-name="Path 5949" d="M-282.822,3262.534c-1.434.265-2.74.5-4.042.751a.6.6,0,0,1-.743-.373,4.563,4.563,0,0,0-3.552-2.279,7.165,7.165,0,0,0-3.791.372,4.274,4.274,0,0,0-2.969,3.462,9.424,9.424,0,0,0,.194,4.482,4.031,4.031,0,0,0,2.194,2.544,6.767,6.767,0,0,0,5.68.181,4.161,4.161,0,0,0,2.347-2.42c.145-.371.308-.632.768-.516a39.95,39.95,0,0,1,3.975.95,6.969,6.969,0,0,1-3.588,4.151,13.3,13.3,0,0,1-13.227-.742c-3.049-1.936-4.167-6.007-2.9-9.6a7.96,7.96,0,0,1,4.8-4.87,14.566,14.566,0,0,1,10.8-.122A6.523,6.523,0,0,1-282.822,3262.534Z" transform="translate(302.991 -3257.529)" fill="#585858"/>
      <path id="Path_5950" data-name="Path 5950" d="M39.97,3260.132c1.61,0,3.156.013,4.7-.007.54-.007.772.366,1.05.706q1.939,2.372,3.876,4.746a4.6,4.6,0,0,0,1.175,1.192c.72-.9,1.408-1.752,2.094-2.61.915-1.145,1.84-2.283,2.734-3.445a1.267,1.267,0,0,1,1.106-.592c1.463.024,2.927.008,4.372.008.189.443-.148.607-.336.825-2.3,2.653-4.587,5.313-6.91,7.943a3.131,3.131,0,0,0-.9,2.385c.085,1.64.006,3.288.031,4.931.01.635-.119,1-.874.954-.93-.056-1.867,0-2.8-.017-.955-.014-.973-.024-.981-.943-.014-1.689-.032-3.378.008-5.066a2.432,2.432,0,0,0-.653-1.792c-2.464-2.8-4.892-5.638-7.334-8.46A1.062,1.062,0,0,1,39.97,3260.132Z" transform="translate(5.84 -3259.777)" fill="#585858"/>
      <path id="Path_5951" data-name="Path 5951" d="M387.4,3260.139c2.665,0,5.331,0,8,0,1.2,0,1.219.012,1.211,1.126-.014,2.069.241,1.725-1.765,1.753-1.332.019-2.665,0-4,.007-1.089.008-1.106.018-1.108,1.094-.008,3.819,0,7.638-.006,11.457,0,1.824.17,1.564-1.532,1.586-.711.009-1.422.012-2.132,0-.943-.018-.963-.026-.969-.955-.013-2.042,0-4.085,0-6.128q0-2.864,0-5.728c0-1.381.122-1.329-1.268-1.328-1.555,0-3.11.01-4.664,0-.944-.009-.973-.026-.968-.953.013-2.273-.262-1.9,1.879-1.921C382.514,3260.121,384.957,3260.139,387.4,3260.139Z" transform="translate(-287.2 -3259.785)" fill="#585858"/>
      <path id="Path_5952" data-name="Path 5952" d="M-101.973,3269.726a1.739,1.739,0,0,1,1.113-.456,7.215,7.215,0,0,0,2.978-1.414,4.009,4.009,0,0,0,.222-5.908,6.276,6.276,0,0,0-3.961-1.691c-4.344-.463-8.7-.146-13.054-.233-.044,0-.089,0-.133,0-.451-.023-.648.2-.636.641.008.311,0,.622,0,.933q0,6.93,0,13.861c0,.311.013.622,0,.933-.017.435.149.659.614.655q1.733-.018,3.466,0c.479,0,.61-.255.6-.673-.009-.311,0-.622,0-.933,0-1.6,0-3.2,0-4.8,0-.356-.019-.758.508-.756,1.747.007,3.487.04,4.806,1.463,1.178,1.27,2.464,2.456,3.516,3.822a4.267,4.267,0,0,0,4.308,1.9c.925-.133,1.886.015,3.076-.07C-97.058,3274.356-98.788,3271.365-101.973,3269.726Zm-2.124-2.549c-.975.021-1.95.005-2.926.005,0,.03,0,.059,0,.089-.932,0-1.864-.02-2.8.007-.628.019-1.032-.11-.955-.868.115-1.129-.2-2.282.183-3.4a16.289,16.289,0,0,1,3.169-.1c1.108-.025,2.218,0,3.327.027a3.821,3.821,0,0,1,1.786.449,1.743,1.743,0,0,1,1,1.6,1.789,1.789,0,0,1-1,1.734A3.872,3.872,0,0,1-104.1,3267.177Z" transform="translate(140.497 -3259.668)" fill="#585858"/>
      <path id="Path_5953" data-name="Path 5953" d="M898.378,3259.4a12.226,12.226,0,0,0-4.553-1.4,16.12,16.12,0,0,0-8.261.862,8.349,8.349,0,0,0-1.067,15.1,14.345,14.345,0,0,0,7.08,1.517,13.592,13.592,0,0,0,5.984-1.11c2.982-1.328,4.869-3.514,5.1-6.894A7.868,7.868,0,0,0,898.378,3259.4Zm-6.941,13.131c-2.185-.022-4.153-.582-5.482-2.458a5.819,5.819,0,0,1,3.712-9.1,8.837,8.837,0,0,1,4.724.3,4.834,4.834,0,0,1,3.426,4.6C898.069,3270.182,895.811,3272.534,891.437,3272.528Z" transform="translate(-722.157 -3257.789)" fill="#585858"/>
      <path id="Path_5954" data-name="Path 5954" d="M239.075,3261.5a8.194,8.194,0,0,0-4.019-1.255c-3.554-.256-7.112-.092-10.667-.129-1.042-.011-1.054.017-1.058,1.137-.008,2.445,0,4.89,0,7.334,0,2.49-.006,4.979,0,7.468,0,1.062.018,1.067,1.114,1.076.889.008,1.781-.039,2.667.014.729.043.907-.272.891-.934-.034-1.466-.017-2.933-.007-4.4.007-1.083.017-1.091,1.1-1.1a53.973,53.973,0,0,0,6.395-.207,8.122,8.122,0,0,0,3.7-1.381A4.683,4.683,0,0,0,239.075,3261.5Zm-3.5,5.391a3.816,3.816,0,0,1-2.337.846c-.8.05-1.6.011-2.4.011-.911-.054-2.065.486-2.68-.163-.55-.581-.154-1.7-.166-2.573-.027-2.022-.009-2.029,2.016-2.02,1.021,0,2.044.007,3.063.062a4.107,4.107,0,0,1,2.476.848A1.867,1.867,0,0,1,235.578,3266.891Z" transform="translate(-153.025 -3259.755)" fill="#585858"/>
    </g>
  </g>
</svg>
