<svg xmlns="http://www.w3.org/2000/svg" width="84.452" height="48.864" viewBox="0 0 84.452 48.864">
  <g id="logo" transform="translate(-6 -17.5)">
    <g id="Group_3558" data-name="Group 3558" transform="translate(26.248 17.5)">
      <path id="Path_5937" data-name="Path 5937" d="M-86.442,2458.022h0c0-.376.005-.753,0-1.129-.006-.351-.012-.357-.357-.362-.556-.007-1.109.047-1.664.076a20.787,20.787,0,0,0-2.813.361,23.4,23.4,0,0,0-5.133,1.591,17.481,17.481,0,0,0-6.636,4.914,11.355,11.355,0,0,0-2.282,4.459,10.266,10.266,0,0,0-.287,3.535,10.951,10.951,0,0,0,1.133,3.925,14,14,0,0,0,3.994,4.712,20.407,20.407,0,0,0,7.219,3.528,24.043,24.043,0,0,0,3.645.714,24,24,0,0,0,2.784.177c.384,0,.393-.008.4-.377q.009-1.1,0-2.209c0-.345-.013-.365-.364-.356a13.672,13.672,0,0,1-2.2-.127,19.1,19.1,0,0,1-5.4-1.5,13.283,13.283,0,0,1-5.748-4.658,8.7,8.7,0,0,1-1.491-4.5,7.981,7.981,0,0,1,.241-2.181,8.833,8.833,0,0,1,1.673-3.457,12.82,12.82,0,0,1,3.805-3.271,18.118,18.118,0,0,1,7.713-2.34c.5-.04,1.008-.094,1.515-.088.188,0,.264-.085.262-.267C-86.445,2458.807-86.442,2458.414-86.442,2458.022Zm0,30.607c0-.344,0-.687,0-1.031,0-.421-.007-.43-.444-.426a25.291,25.291,0,0,1-4.912-.485,25.126,25.126,0,0,1-9.854-4.024,19.289,19.289,0,0,1-5.274-5.333,15.628,15.628,0,0,1-1.956-4.257,22.976,22.976,0,0,1-.519-2.685c-.065-.406-.072-.405-.479-.4-.9,0-1.794.126-2.695.1a4.768,4.768,0,0,0-.491.008c-.326.022-.4.109-.355.435.047.355.114.707.159,1.062a15.787,15.787,0,0,0,1.442,4.759,19.476,19.476,0,0,0,2.8,4.3,23.849,23.849,0,0,0,5.012,4.439,28.857,28.857,0,0,0,4.664,2.5,31.257,31.257,0,0,0,5.881,1.831,31.7,31.7,0,0,0,3.333.519,28.489,28.489,0,0,0,3.324.179c.355-.005.361-.011.367-.353C-86.436,2489.382-86.441,2489.005-86.441,2488.629Z" transform="translate(113.432 -2456.531)" fill="#fff"/>
      <path id="Path_5938" data-name="Path 5938" d="M63.927,2458.022c0,.393,0,.785,0,1.178,0,.182-.074.27-.262.267-.507-.007-1.01.047-1.515.088a18.118,18.118,0,0,0-7.713,2.34,12.82,12.82,0,0,0-3.805,3.271,8.833,8.833,0,0,0-1.673,3.457,7.981,7.981,0,0,0-.241,2.181,8.7,8.7,0,0,0,1.491,4.5,13.283,13.283,0,0,0,5.748,4.658,19.1,19.1,0,0,0,5.4,1.5,13.672,13.672,0,0,0,2.2.127c.351-.01.361.01.364.356q.009,1.1,0,2.209c0,.369-.011.376-.4.377a25.052,25.052,0,0,1-6.429-.891,20.407,20.407,0,0,1-7.219-3.528,14,14,0,0,1-3.994-4.712,10.951,10.951,0,0,1-1.133-3.925,10.266,10.266,0,0,1,.287-3.535,11.354,11.354,0,0,1,2.282-4.459,17.481,17.481,0,0,1,6.636-4.914,23.4,23.4,0,0,1,5.133-1.591,20.787,20.787,0,0,1,2.813-.361c.554-.028,1.108-.083,1.664-.076.346,0,.351.01.357.362.007.376,0,.753,0,1.129Z" transform="translate(-36.937 -2456.531)" fill="#fff"/>
      <path id="Path_5939" data-name="Path 5939" d="M-86.441,2748.994c0,.376.005.753,0,1.129-.006.342-.012.348-.367.353a28.489,28.489,0,0,1-3.324-.179,31.763,31.763,0,0,1-3.333-.519,31.275,31.275,0,0,1-5.881-1.831,28.856,28.856,0,0,1-4.664-2.5,23.856,23.856,0,0,1-5.012-4.439,19.477,19.477,0,0,1-2.8-4.3,15.785,15.785,0,0,1-1.442-4.759c-.045-.355-.112-.707-.159-1.062-.043-.326.029-.413.355-.435a4.768,4.768,0,0,1,.491-.008c.9.03,1.8-.094,2.695-.1.407,0,.414,0,.479.4a22.986,22.986,0,0,0,.519,2.685,15.632,15.632,0,0,0,1.956,4.257,19.3,19.3,0,0,0,5.274,5.333,25.126,25.126,0,0,0,9.854,4.024,25.291,25.291,0,0,0,4.912.485c.437,0,.439.005.444.426C-86.438,2748.307-86.441,2748.651-86.441,2748.994Z" transform="translate(113.432 -2716.896)" fill="#fff"/>
      <path id="Path_5940" data-name="Path 5940" d="M264.094,2572.146a8.2,8.2,0,0,0-3.458-2.738,13.96,13.96,0,0,0-5.832-1.125,12.513,12.513,0,0,0-2.414.308,9.926,9.926,0,0,0-5.523,2.958,5.145,5.145,0,0,0-1.367,2.723,5.017,5.017,0,0,0,1.221,4.143,30.785,30.785,0,0,0,3.5,3.361c1.349,1.138,2.758,2.2,4.178,3.249a.636.636,0,0,0,.827.037c.907-.552,1.837-1.069,2.724-1.655a24.691,24.691,0,0,0,5.522-4.591,5.521,5.521,0,0,0,1.574-3.5A5.2,5.2,0,0,0,264.094,2572.146Zm-4.516,4.795a5.4,5.4,0,0,1-3.5,1.669,6.223,6.223,0,0,1-3.823-.74,4.283,4.283,0,0,1-1.407-1.27,2.815,2.815,0,0,1,.282-3.519,5.269,5.269,0,0,1,2.886-1.552,5.384,5.384,0,0,1,1.112-.114,6.043,6.043,0,0,1,3.715,1.034,3.825,3.825,0,0,1,1.164,1.3A2.848,2.848,0,0,1,259.578,2576.94Z" transform="translate(-227.809 -2562.791)" fill="#fff"/>
    </g>
    <g id="Group_3559" data-name="Group 3559" transform="translate(6 58.978)">
      <path id="Path_5941" data-name="Path 5941" d="M708.229,3262.556c.177-.007.218.116.283.193.888,1.045,1.767,2.1,2.66,3.138.312.364.54.871.971,1.044a3.928,3.928,0,0,0,1.32.056h.167c.427-.008.436-.009.437-.424q.005-3.116,0-6.232c0-.432-.009-.436-.421-.442-.315-.005-.631,0-.946,0-.453.006-.459.008-.461.461,0,1.224,0,2.448,0,3.672,0,.134.072.3-.1.406a.6.6,0,0,1-.244-.216c-1.072-1.278-2.154-2.547-3.21-3.839a1.061,1.061,0,0,0-1.03-.492,6.412,6.412,0,0,1-.778.007c-.5,0-.507.005-.508.528q0,2.7,0,5.4c0,.278.014.557,0,.834s.108.353.363.343c.352-.014.705,0,1.057,0,.391-.007.4-.011.4-.4.005-1.168,0-2.337,0-3.505A1.262,1.262,0,0,1,708.229,3262.556Z" transform="translate(-650.151 -3259.74)" fill="#585858"/>
      <path id="Path_5942" data-name="Path 5942" d="M1076.9,3264.962a6.583,6.583,0,0,0,2.015-.237,2.787,2.787,0,0,0,1.325-.776,1.724,1.724,0,0,0-.169-2.558,3.1,3.1,0,0,0-1.08-.555c-.834-.259-1.7-.37-2.55-.555a8.592,8.592,0,0,1-.958-.277.491.491,0,0,1-.388-.485.526.526,0,0,1,.412-.469,2.275,2.275,0,0,1,.316-.1,3.978,3.978,0,0,1,1.6-.038,1.182,1.182,0,0,1,.992.7c.086.217.241.246.442.236.352-.017.7-.021,1.056-.03.6-.017.631-.074.406-.647a1.84,1.84,0,0,0-.555-.751,2.3,2.3,0,0,0-.712-.427,6.744,6.744,0,0,0-4.521,0,2.047,2.047,0,0,0-1.04.8,1.411,1.411,0,0,0,.016,1.709,2.315,2.315,0,0,0,1.05.793,8.118,8.118,0,0,0,1.547.436,18.447,18.447,0,0,1,1.954.41c.324.1.657.191.7.609.033.341-.187.611-.646.8a2.258,2.258,0,0,1-.318.1,3.967,3.967,0,0,1-1.492.055,1.638,1.638,0,0,1-1.456-1.041c-.063-.165-.141-.239-.322-.224-.425.035-.851.051-1.275.086-.365.03-.4.1-.28.466a2.655,2.655,0,0,0,1.884,1.731A6.268,6.268,0,0,0,1076.9,3264.962Z" transform="translate(-996.277 -3257.591)" fill="#585858"/>
      <path id="Path_5943" data-name="Path 5943" d="M517.9,3266.406q-.837-1.534-1.68-3.065c-.542-.99-1.092-1.976-1.621-2.973a.564.564,0,0,0-.608-.357,8.084,8.084,0,0,1-1.166,0,.637.637,0,0,0-.691.4c-1,1.917-2.024,3.823-3.039,5.733-.154.29-.307.581-.512.97.668,0,1.223-.011,1.778.005a.4.4,0,0,0,.42-.277c.15-.318.319-.627.461-.948a.556.556,0,0,1,.59-.386q1.556.031,3.112,0a.571.571,0,0,1,.6.381c.155.335.342.656.505.988.07.143.146.24.328.238.6-.008,1.205,0,1.886,0C518.119,3266.826,518.018,3266.613,517.9,3266.406Zm-5.827-2.092c.358-.9.817-1.7,1.286-2.636l1.349,2.636Z" transform="translate(-463.39 -3259.869)" fill="#585858"/>
      <path id="Path_5944" data-name="Path 5944" d="M-294.582,3259.616a2.719,2.719,0,0,0-1.693-1.679,6.072,6.072,0,0,0-4.5.051,3.319,3.319,0,0,0-2,2.031,3.391,3.391,0,0,0,1.211,4,5.545,5.545,0,0,0,5.515.31,2.905,2.905,0,0,0,1.5-1.73,16.6,16.6,0,0,0-1.657-.4c-.192-.049-.26.061-.32.215a1.734,1.734,0,0,1-.978,1.009,2.821,2.821,0,0,1-2.368-.076,1.68,1.68,0,0,1-.915-1.061,3.929,3.929,0,0,1-.081-1.869,1.781,1.781,0,0,1,1.238-1.443,2.988,2.988,0,0,1,1.581-.156,1.9,1.9,0,0,1,1.481.951.252.252,0,0,0,.31.156C-295.724,3259.825-295.18,3259.727-294.582,3259.616Z" transform="translate(302.991 -3257.529)" fill="#585858"/>
      <path id="Path_5945" data-name="Path 5945" d="M39.97,3260.127a.443.443,0,0,0,.149.317c1.018,1.177,2.031,2.358,3.058,3.527a1.014,1.014,0,0,1,.272.747c-.017.7-.01,1.408,0,2.112,0,.383.011.387.409.393s.78-.016,1.167.007c.315.019.368-.133.364-.4-.01-.685.023-1.372-.013-2.056a1.306,1.306,0,0,1,.377-.994c.968-1.1,1.923-2.206,2.881-3.312.079-.091.219-.159.14-.344-.6,0-1.213.007-1.823,0a.528.528,0,0,0-.461.247c-.373.484-.758.959-1.14,1.436-.286.357-.573.714-.873,1.088a1.915,1.915,0,0,1-.49-.5l-1.616-1.979c-.116-.142-.213-.3-.438-.294C41.286,3260.132,40.641,3260.127,39.97,3260.127Z" transform="translate(-20.87 -3259.979)" fill="#585858"/>
      <path id="Path_5946" data-name="Path 5946" d="M382.028,3260.135c-1.019,0-2.037-.007-3.056,0-.893.008-.778-.146-.783.8,0,.387.01.394.4.4.648.006,1.3,0,1.945,0,.58,0,.528-.022.529.553q0,1.194,0,2.388c0,.852,0,1.7,0,2.555,0,.387.011.391.4.4.3.006.593,0,.889,0,.71-.009.637.1.639-.661,0-1.592,0-3.185,0-4.777,0-.448.008-.453.462-.456.556,0,1.111.005,1.667,0,.837-.012.73.132.736-.731,0-.465-.006-.469-.5-.469C384.25,3260.134,383.139,3260.135,382.028,3260.135Z" transform="translate(-340.251 -3259.988)" fill="#585858"/>
      <path id="Path_5947" data-name="Path 5947" d="M708.229,3262.556a1.262,1.262,0,0,0-.039.521c0,1.168,0,2.337,0,3.505,0,.393-.012.4-.4.4-.352.005-.706-.01-1.057,0-.255.01-.381-.063-.363-.343s0-.556,0-.834q0-2.7,0-5.4c0-.522,0-.523.508-.528a6.412,6.412,0,0,0,.778-.007,1.061,1.061,0,0,1,1.03.492c1.056,1.292,2.138,2.561,3.21,3.839a.6.6,0,0,0,.244.216c.169-.107.1-.271.1-.406.006-1.224,0-2.448,0-3.672,0-.453.007-.456.461-.461.315,0,.631,0,.946,0,.412.007.42.01.421.442q0,3.116,0,6.232c0,.415-.01.415-.437.424h-.167a3.928,3.928,0,0,1-1.32-.056c-.43-.173-.658-.68-.971-1.044-.893-1.04-1.772-2.093-2.66-3.138C708.447,3262.671,708.407,3262.549,708.229,3262.556Z" transform="translate(-650.151 -3259.74)" fill="#585858"/>
      <path id="Path_5948" data-name="Path 5948" d="M1076.9,3264.962a6.268,6.268,0,0,1-2.052-.247,2.655,2.655,0,0,1-1.884-1.731c-.124-.365-.085-.436.28-.466.425-.035.851-.051,1.275-.086.181-.015.259.059.322.224a1.638,1.638,0,0,0,1.456,1.041,3.967,3.967,0,0,0,1.492-.055,2.258,2.258,0,0,0,.318-.1c.459-.189.679-.46.646-.8-.041-.418-.373-.509-.7-.609a18.447,18.447,0,0,0-1.954-.41,8.118,8.118,0,0,1-1.547-.436,2.315,2.315,0,0,1-1.05-.793,1.411,1.411,0,0,1-.016-1.709,2.047,2.047,0,0,1,1.04-.8,6.744,6.744,0,0,1,4.521,0,2.3,2.3,0,0,1,.712.427,1.84,1.84,0,0,1,.555.751c.225.572.191.63-.406.647-.352.01-.7.013-1.056.03-.2.01-.356-.019-.442-.236a1.182,1.182,0,0,0-.992-.7,3.978,3.978,0,0,0-1.6.038,2.275,2.275,0,0,0-.316.1.526.526,0,0,0-.412.469.491.491,0,0,0,.388.485,8.592,8.592,0,0,0,.958.277c.85.184,1.715.3,2.55.555a3.1,3.1,0,0,1,1.08.555,1.724,1.724,0,0,1,.169,2.558,2.787,2.787,0,0,1-1.325.776A6.583,6.583,0,0,1,1076.9,3264.962Z" transform="translate(-996.277 -3257.591)" fill="#585858"/>
      <path id="Path_5949" data-name="Path 5949" d="M-294.582,3259.616c-.6.11-1.142.208-1.685.313a.252.252,0,0,1-.31-.156,1.9,1.9,0,0,0-1.481-.951,2.988,2.988,0,0,0-1.581.156,1.781,1.781,0,0,0-1.238,1.443,3.929,3.929,0,0,0,.081,1.869,1.68,1.68,0,0,0,.915,1.061,2.821,2.821,0,0,0,2.368.076,1.734,1.734,0,0,0,.978-1.009c.06-.155.129-.264.32-.215a16.6,16.6,0,0,1,1.657.4,2.905,2.905,0,0,1-1.5,1.73,5.545,5.545,0,0,1-5.515-.31,3.391,3.391,0,0,1-1.211-4,3.319,3.319,0,0,1,2-2.031,6.072,6.072,0,0,1,4.5-.051A2.719,2.719,0,0,1-294.582,3259.616Z" transform="translate(302.991 -3257.529)" fill="#585858"/>
      <path id="Path_5950" data-name="Path 5950" d="M39.97,3260.127c.671,0,1.316.005,1.96,0,.225,0,.322.153.438.294l1.616,1.979a1.915,1.915,0,0,0,.49.5c.3-.374.587-.73.873-1.088.382-.478.767-.952,1.14-1.436a.528.528,0,0,1,.461-.247c.61.01,1.22,0,1.823,0,.079.185-.062.253-.14.344-.958,1.106-1.912,2.215-2.881,3.312a1.306,1.306,0,0,0-.377.994c.036.684,0,1.371.013,2.056,0,.265-.05.417-.364.4-.388-.023-.778,0-1.167-.007s-.406-.01-.409-.393c-.006-.7-.013-1.408,0-2.112a1.014,1.014,0,0,0-.272-.747c-1.027-1.169-2.04-2.351-3.058-3.527A.443.443,0,0,1,39.97,3260.127Z" transform="translate(-20.87 -3259.979)" fill="#585858"/>
      <path id="Path_5951" data-name="Path 5951" d="M382.028,3260.135c1.111,0,2.223,0,3.334,0,.5,0,.508,0,.5.469-.006.863.1.719-.736.731-.556.008-1.111,0-1.667,0-.454,0-.461.008-.462.456,0,1.592,0,3.184,0,4.777,0,.761.071.652-.639.661-.3,0-.593,0-.889,0-.393-.007-.4-.011-.4-.4-.006-.852,0-1.7,0-2.555q0-1.194,0-2.388c0-.576.051-.554-.529-.553-.648,0-1.3,0-1.945,0-.394,0-.406-.011-.4-.4.005-.948-.109-.793.783-.8C379.99,3260.128,381.009,3260.135,382.028,3260.135Z" transform="translate(-340.251 -3259.988)" fill="#585858"/>
      <path id="Path_5952" data-name="Path 5952" d="M-109.829,3264.055a.724.724,0,0,1,.464-.19,3.009,3.009,0,0,0,1.242-.59,1.672,1.672,0,0,0,.093-2.463,2.618,2.618,0,0,0-1.651-.7c-1.811-.193-3.628-.061-5.443-.1-.018,0-.037,0-.056,0-.188-.009-.27.083-.265.267,0,.13,0,.259,0,.389q0,2.889,0,5.779c0,.13.006.259,0,.389-.007.181.062.275.256.273q.723-.007,1.445,0c.2,0,.255-.106.249-.281,0-.13,0-.259,0-.389,0-.667,0-1.334,0-2,0-.148-.008-.316.212-.315a2.487,2.487,0,0,1,2,.61c.491.53,1.027,1.024,1.466,1.594a1.779,1.779,0,0,0,1.8.791c.386-.055.786.006,1.283-.029C-107.78,3265.985-108.5,3264.738-109.829,3264.055Zm-.886-1.063c-.406.009-.813,0-1.22,0,0,.012,0,.024,0,.037-.388,0-.777-.008-1.165,0-.262.008-.43-.046-.4-.362a6.119,6.119,0,0,1,.076-1.417,6.809,6.809,0,0,1,1.321-.041c.462-.01.925,0,1.387.011a1.593,1.593,0,0,1,.745.187.727.727,0,0,1,.418.667.746.746,0,0,1-.419.723A1.612,1.612,0,0,1-110.715,3262.992Z" transform="translate(125.891 -3259.861)" fill="#585858"/>
      <path id="Path_5953" data-name="Path 5953" d="M887.778,3258.483a5.094,5.094,0,0,0-1.9-.584,6.722,6.722,0,0,0-3.444.359,3.481,3.481,0,0,0-.445,6.295,5.979,5.979,0,0,0,2.952.632,5.663,5.663,0,0,0,2.495-.463,3.246,3.246,0,0,0,2.127-2.875A3.28,3.28,0,0,0,887.778,3258.483Zm-2.894,5.475a2.617,2.617,0,0,1-2.286-1.025,2.426,2.426,0,0,1,1.547-3.794,3.686,3.686,0,0,1,1.969.127,2.015,2.015,0,0,1,1.428,1.919A2.36,2.36,0,0,1,884.885,3263.958Z" transform="translate(-814.306 -3257.813)" fill="#585858"/>
      <path id="Path_5954" data-name="Path 5954" d="M229.893,3260.683a3.416,3.416,0,0,0-1.676-.523c-1.482-.107-2.965-.038-4.448-.054-.435,0-.44.007-.441.474,0,1.019,0,2.039,0,3.058,0,1.038,0,2.076,0,3.114,0,.442.007.445.464.449.371,0,.743-.016,1.112.006.3.018.378-.114.372-.39-.014-.611-.007-1.223,0-1.834,0-.451.007-.455.46-.459a22.448,22.448,0,0,0,2.666-.086,3.388,3.388,0,0,0,1.542-.576A1.953,1.953,0,0,0,229.893,3260.683Zm-1.458,2.248a1.59,1.59,0,0,1-.974.353c-.332.021-.666,0-1,0-.38-.023-.861.2-1.117-.068-.23-.242-.064-.707-.069-1.073-.011-.843,0-.846.841-.842.426,0,.852,0,1.277.026a1.715,1.715,0,0,1,1.032.354A.778.778,0,0,1,228.435,3262.93Z" transform="translate(-194.016 -3259.955)" fill="#585858"/>
    </g>
  </g>
</svg>
